<svg width="16" height="16" viewBox="0 0 16 16" fill="none" xmlns="http://www.w3.org/2000/svg">
<g clip-path="url(#clip0_24_52)">
<path d="M7.586 0.101999C7.70072 0.0350533 7.83117 -0.00022316 7.964 -0.00022316C8.09683 -0.00022316 8.22728 0.0350533 8.342 0.101999L14.556 3.727C14.6694 3.79295 14.7636 3.8875 14.829 4.0012C14.8945 4.11491 14.9289 4.2438 14.929 4.375V11.625C14.9289 11.7562 14.8945 11.8851 14.829 11.9988C14.7636 12.1125 14.6694 12.207 14.556 12.273L8.342 15.898C8.22728 15.9649 8.09683 16.0002 7.964 16.0002C7.83117 16.0002 7.70072 15.9649 7.586 15.898L1.372 12.273C1.25877 12.2069 1.16483 12.1123 1.09956 11.9986C1.03429 11.8849 0.999961 11.7561 1 11.625V4.375C0.999961 4.2439 1.03429 4.11507 1.09956 4.00138C1.16483 3.88768 1.25877 3.79307 1.372 3.727L7.586 0.101999ZM7.964 14.382L13.429 11.194V4.806L7.964 1.618L2.5 4.806V11.194L7.964 14.382Z" fill="white"/>
<path d="M8 5.5C7.58637 5.50008 7.17921 5.60279 6.81504 5.79893C6.45086 5.99506 6.14104 6.2785 5.91334 6.62382C5.68565 6.96915 5.5472 7.36557 5.51039 7.77757C5.47359 8.18957 5.53959 8.60426 5.70248 8.98447C5.86536 9.36469 6.12004 9.69854 6.44369 9.95612C6.76734 10.2137 7.14984 10.3869 7.55692 10.4603C7.96399 10.5337 8.38291 10.505 8.77613 10.3766C9.16936 10.2483 9.52459 10.0244 9.81 9.725C9.87796 9.65369 9.9593 9.59647 10.0494 9.55659C10.1394 9.51672 10.2365 9.49498 10.335 9.49261C10.4334 9.49024 10.5314 9.5073 10.6233 9.5428C10.7152 9.57829 10.7992 9.63154 10.8705 9.6995C10.9418 9.76746 10.999 9.8488 11.0389 9.93887C11.0788 10.0289 11.1005 10.126 11.1029 10.2245C11.1053 10.3229 11.0882 10.4209 11.0527 10.5128C11.0172 10.6047 10.964 10.6887 10.896 10.76C10.345 11.3381 9.63346 11.7381 8.85313 11.9083C8.0728 12.0785 7.25937 12.0113 6.51761 11.7152C5.77584 11.4191 5.1397 10.9077 4.6911 10.2469C4.24251 9.5861 4.002 8.80614 4.00056 8.00746C3.99911 7.20878 4.2368 6.42795 4.683 5.76553C5.1292 5.10312 5.76349 4.58944 6.50418 4.29066C7.24487 3.99188 8.05805 3.92167 8.83899 4.08909C9.61993 4.2565 10.3329 4.65386 10.886 5.23C11.0239 5.37348 11.0992 5.56587 11.0952 5.76485C11.0913 5.96383 11.0085 6.15309 10.865 6.291C10.7215 6.42891 10.5291 6.50418 10.3302 6.50024C10.1312 6.4963 9.94192 6.41348 9.804 6.27C9.5711 6.0262 9.29111 5.83224 8.98102 5.69988C8.67092 5.56753 8.33717 5.49952 8 5.5Z" fill="white"/>
</g>
<defs>
<clipPath id="clip0_24_52">
<rect width="16" height="16" fill="white"/>
</clipPath>
</defs>
</svg>
