<svg width="50" height="24" viewBox="0 0 50 24" fill="none" xmlns="http://www.w3.org/2000/svg">
<path d="M0 0L1.926 21.6L10.569 24L19.2345 21.597L21.1635 0H0ZM17.583 20.223L10.617 22.1535V22.164L10.599 22.158L10.581 22.164V22.1535L3.615 20.223L1.968 1.767H19.23L17.583 20.223ZM13.833 12.426L13.527 15.861L10.569 16.659L7.6185 15.864L7.4295 13.749H4.77L5.1405 17.91L10.5795 19.4145L16.002 17.91L16.7295 9.777H7.074L6.8325 7.0635H16.9695L17.2065 4.4145H3.936L4.6515 12.426H13.833Z" fill="white"/>
<path d="M28 0H49.3956L48.2279 20.4268L38.6994 24L29.1687 20.4268L28 0ZM30.2535 2.12691L31.2127 18.9209L38.6994 21.7285L46.184 18.9209L47.1421 2.12691H30.2535ZM31.7667 4.25381H45.4289L45.3141 6.26055L37.5615 9.972H45.1014L44.6717 17.5055L38.6973 19.7462L32.7228 17.5055L32.6016 15.385V15.3807L32.5218 13.9025H34.6593L34.7253 15.268L34.7678 16.0018L38.6973 17.4736L42.6278 15.9996L42.8511 12.0968H32.4123L32.2995 10.1315L40.1382 6.38072H38.6973L32.0454 6.39348L31.7667 4.25381Z" fill="white"/>
</svg>
