<svg width="52" height="53" viewBox="0 0 52 53" fill="none" xmlns="http://www.w3.org/2000/svg">
<path d="M0 29L1.926 50.6L10.569 53L19.2345 50.597L21.1635 29H0ZM17.583 49.223L10.617 51.1535V51.164L10.599 51.158L10.581 51.164V51.1535L3.615 49.223L1.968 30.767H19.23L17.583 49.223ZM13.833 41.426L13.527 44.861L10.569 45.659L7.6185 44.864L7.4295 42.749H4.77L5.1405 46.91L10.5795 48.4145L16.002 46.91L16.7295 38.777H7.074L6.8325 36.0635H16.9695L17.2065 33.4145H3.936L4.6515 41.426H13.833Z" fill="white"/>
<path d="M30 29H51.3956L50.2279 49.4268L40.6994 53L31.1687 49.4268L30 29ZM32.2535 31.1269L33.2127 47.9209L40.6994 50.7285L48.184 47.9209L49.1421 31.1269H32.2535ZM33.7667 33.2538H47.4289L47.3141 35.2605L39.5615 38.972H47.1014L46.6717 46.5055L40.6973 48.7462L34.7228 46.5055L34.6016 44.385V44.3807L34.5218 42.9025H36.6593L36.7253 44.268L36.7678 45.0018L40.6973 46.4736L44.6278 44.9996L44.8511 41.0968H34.4123L34.2995 39.1315L42.1382 35.3807H40.6973L34.0454 35.3935L33.7667 33.2538Z" fill="white"/>
<path d="M14 0H38V24H14V0ZM36.0333 18.276C35.8587 17.1813 35.1453 16.2613 33.0307 15.4027C32.2947 15.0573 31.4773 14.8187 31.232 14.264C31.1413 13.9333 31.128 13.7547 31.1867 13.5587C31.3373 12.9133 32.1027 12.72 32.7027 12.8987C33.0933 13.0187 33.4533 13.3187 33.6787 13.8C34.712 13.124 34.712 13.124 35.4333 12.6747C35.1627 12.256 35.028 12.0733 34.848 11.8933C34.2173 11.1893 33.3773 10.8293 32.0133 10.86L31.3093 10.9493C30.6333 11.1147 29.988 11.476 29.5987 11.9547C28.4587 13.2453 28.788 15.4947 30.168 16.4267C31.532 17.4467 33.5293 17.6707 33.784 18.6307C34.024 19.8013 32.9147 20.176 31.8173 20.0413C31.008 19.86 30.5573 19.456 30.0627 18.7053L28.2333 19.756C28.4427 20.2347 28.6827 20.4453 29.0427 20.8653C30.7827 22.62 35.1333 22.5307 35.9133 19.86C35.9413 19.7707 36.1533 19.156 35.988 18.2107L36.0333 18.276ZM27.0507 11.0307H24.8027C24.8027 12.968 24.7933 14.8947 24.7933 16.836C24.7933 18.068 24.856 19.1987 24.6547 19.5467C24.3253 20.236 23.4733 20.148 23.088 20.0253C22.692 19.8307 22.4907 19.56 22.2573 19.1707C22.1947 19.0667 22.148 18.976 22.1307 18.976L20.3067 20.1013C20.612 20.732 21.0573 21.2733 21.632 21.6173C22.4867 22.128 23.6347 22.2933 24.8373 22.024C25.6213 21.7973 26.2973 21.332 26.648 20.612C27.16 19.6827 27.0507 18.5413 27.0467 17.2667C27.0573 15.212 27.0467 13.156 27.0467 11.0867L27.0507 11.0307Z" fill="white"/>
</svg>
