<svg width="22" height="24" viewBox="0 0 22 24" fill="none" xmlns="http://www.w3.org/2000/svg">
<path d="M11 23.9568C10.658 23.9568 10.34 23.8678 10.043 23.7138L7.014 21.9758C6.559 21.7338 6.787 21.6458 6.924 21.6018C7.538 21.4038 7.652 21.3598 8.29 21.0068C8.358 20.9628 8.45 20.9848 8.518 21.0288L10.841 22.3718C10.931 22.4158 11.046 22.4158 11.114 22.3718L20.201 17.2878C20.291 17.2438 20.337 17.1558 20.337 17.0458V6.89984C20.337 6.78984 20.292 6.70184 20.201 6.65784L11.114 1.59684C11.023 1.55284 10.909 1.55284 10.841 1.59684L1.754 6.65784C1.663 6.70184 1.617 6.81184 1.617 6.89984V17.0458C1.617 17.1338 1.663 17.2438 1.754 17.2878L4.236 18.6748C5.58 19.3348 6.422 18.5648 6.422 17.7948V7.78084C6.422 7.64884 6.536 7.51684 6.696 7.51684H7.857C7.994 7.51684 8.13 7.62684 8.13 7.78084V17.7938C8.13 19.5328 7.151 20.5448 5.443 20.5448C4.919 20.5448 4.509 20.5448 3.348 19.9948L0.957 18.6748C0.668884 18.5164 0.428283 18.2839 0.260047 18.0014C0.0918107 17.7189 0.00203788 17.3966 0 17.0678V6.92184C0 6.26184 0.364 5.64584 0.957 5.31584L10.044 0.230841C10.3398 0.0791271 10.6675 0 11 0C11.3325 0 11.6602 0.0791271 11.956 0.230841L21.044 5.31484C21.636 5.64484 22 6.26084 22 6.92084V17.0668C22 17.7268 21.636 18.3428 21.044 18.6738L11.957 23.7568C11.655 23.8878 11.3292 23.9552 11 23.9548M13.801 16.9778C9.816 16.9778 8.996 15.2178 8.996 13.7208C8.996 13.5888 9.11 13.4568 9.269 13.4568H10.453C10.59 13.4568 10.703 13.5448 10.703 13.6768C10.886 14.8428 11.41 15.4148 13.824 15.4148C15.737 15.4148 16.557 14.9968 16.557 14.0068C16.557 13.4348 16.329 13.0168 13.346 12.7308C10.863 12.4878 9.315 11.9608 9.315 10.0458C9.315 8.26284 10.863 7.20584 13.46 7.20584C16.375 7.20584 17.81 8.17484 17.992 10.2878C17.99 10.3594 17.9659 10.4285 17.923 10.4858C17.878 10.5298 17.81 10.5738 17.741 10.5738H16.557C16.4995 10.5724 16.444 10.5524 16.3989 10.5167C16.3538 10.4809 16.3215 10.4315 16.307 10.3758C16.033 9.16584 15.327 8.76884 13.46 8.76884C11.364 8.76884 11.114 9.47284 11.114 10.0018C11.114 10.6398 11.41 10.8378 14.234 11.1898C17.035 11.5418 18.356 12.0478 18.356 13.9398C18.333 15.8778 16.694 16.9778 13.801 16.9778Z" fill="white"/>
</svg>
