<svg width="22" height="10" viewBox="0 0 22 10" fill="none" xmlns="http://www.w3.org/2000/svg">
<path d="M1.14999 9.78H2.71999C2.7539 9.78035 2.78679 9.76837 2.81254 9.7463C2.83828 9.72423 2.85515 9.69357 2.85999 9.66L3.20999 7.84H4.42999C4.94069 7.85278 5.45023 7.78529 5.93999 7.64C6.3368 7.50876 6.69905 7.29004 6.99999 7C7.27025 6.75703 7.49687 6.46954 7.66999 6.15C7.84122 5.8374 7.96268 5.50001 8.02999 5.15C8.13623 4.78308 8.15448 4.39627 8.08324 4.02098C8.01201 3.64569 7.8533 3.29247 7.61999 2.99C7.34967 2.71532 7.02249 2.50315 6.66142 2.3684C6.30036 2.23365 5.91418 2.17958 5.52999 2.21H2.52999C2.494 2.21162 2.45962 2.22534 2.43239 2.24893C2.40517 2.27252 2.38671 2.30461 2.37999 2.34L0.99999 9.6C0.984704 9.64199 0.984704 9.68801 0.99999 9.73C1.01907 9.74986 1.04269 9.76479 1.06882 9.7735C1.09495 9.78221 1.12281 9.78444 1.14999 9.78ZM3.99999 3.62H4.99999C5.19024 3.59444 5.38368 3.60692 5.56907 3.6567C5.75446 3.70648 5.92813 3.79258 6.07999 3.91C6.24999 4.09 6.27999 4.43 6.18999 4.91C6.13985 5.33943 5.93766 5.73673 5.61999 6.03C5.22394 6.28077 4.75733 6.39654 4.28999 6.36H3.48999L3.99999 3.62ZM13.8 2.67C13.2586 2.27199 12.5883 2.09014 11.92 2.16H10.73L11.06 0.4C11.0697 0.379719 11.0748 0.357504 11.0748 0.335C11.0748 0.312497 11.0697 0.290281 11.06 0.27C11.0245 0.257 10.9855 0.257 10.95 0.27H9.37999C9.34608 0.269653 9.31319 0.281626 9.28744 0.303697C9.2617 0.325768 9.24483 0.356434 9.23999 0.39L7.85999 7.66C7.85035 7.67853 7.84531 7.69911 7.84531 7.72C7.84531 7.74089 7.85035 7.76147 7.85999 7.78C7.87178 7.79846 7.88805 7.81364 7.90728 7.82413C7.92651 7.83462 7.94808 7.84008 7.96999 7.84H9.50999C9.54545 7.84009 9.57962 7.82672 9.60561 7.80259C9.6316 7.77846 9.64746 7.74537 9.64999 7.71L10.42 3.64H11.53C11.98 3.64 12.14 3.74 12.19 3.8C12.2307 3.89828 12.2517 4.00362 12.2517 4.11C12.2517 4.21638 12.2307 4.32172 12.19 4.42L11.58 7.66C11.5703 7.67853 11.5653 7.69911 11.5653 7.72C11.5653 7.74089 11.5703 7.76147 11.58 7.78C11.5924 7.79786 11.6088 7.81258 11.6279 7.82299C11.647 7.83341 11.6683 7.83923 11.69 7.84H13.25C13.286 7.83838 13.3204 7.82467 13.3476 7.80107C13.3748 7.77748 13.3933 7.74539 13.4 7.71L14.04 4.31C14.1433 4.03888 14.1754 3.74584 14.1334 3.45877C14.0914 3.1717 13.9766 2.90017 13.8 2.67ZM18.32 2.16H15.19C15.1716 2.15864 15.1531 2.16093 15.1356 2.16673C15.1181 2.17254 15.1019 2.18174 15.088 2.19382C15.074 2.2059 15.0626 2.22062 15.0544 2.23712C15.0461 2.25363 15.0413 2.2716 15.04 2.29L13.58 9.6C13.5709 9.62046 13.5662 9.64261 13.5662 9.665C13.5662 9.68739 13.5709 9.70954 13.58 9.73C13.5934 9.74602 13.6103 9.75883 13.6293 9.76748C13.6484 9.77613 13.6691 9.78041 13.69 9.78H15.32C15.3556 9.7829 15.3909 9.77209 15.4188 9.74978C15.4467 9.72748 15.465 9.69536 15.47 9.66L15.84 7.84H17.11C17.6371 7.85159 18.1629 7.78417 18.67 7.64C19.1066 7.51854 19.51 7.29973 19.85 7C20.1291 6.75774 20.3658 6.47043 20.55 6.15C20.7244 5.83785 20.8492 5.50049 20.92 5.15C21.029 4.78274 21.0477 4.3946 20.9746 4.01855C20.9015 3.6425 20.7387 3.28965 20.5 2.99C20.2172 2.70361 19.8763 2.4813 19.5002 2.33811C19.1241 2.19491 18.7216 2.13417 18.32 2.16ZM18.94 4.93C18.8802 5.36301 18.6673 5.76031 18.34 6.05C17.9296 6.30191 17.45 6.41743 16.97 6.38H16.17L16.71 3.62H17.71C18.1097 3.57101 18.5132 3.67456 18.84 3.91C19 4.09 19 4.43 18.94 4.93Z" fill="white"/>
</svg>
