<svg width="24" height="24" viewBox="0 0 24 24" fill="none" xmlns="http://www.w3.org/2000/svg">
<path d="M9.58501 11.692H13.913C13.913 11.692 16.345 11.731 16.345 9.342V5.391C16.345 5.391 16.714 3 11.936 3C7.36201 3 7.64701 4.983 7.64701 4.983L7.65301 7.038H12.016V7.655H5.92001C5.92001 7.655 2.99301 7.323 2.99301 11.937C2.99301 16.551 5.54801 16.387 5.54801 16.387H7.07201V14.246C7.07201 14.246 6.98901 11.692 9.58501 11.692ZM9.52901 5.952C9.32082 5.952 9.12115 5.86929 8.97393 5.72208C8.82672 5.57486 8.74401 5.37519 8.74401 5.167C8.74401 4.9588 8.82672 4.75914 8.97393 4.61192C9.12115 4.46471 9.32082 4.382 9.52901 4.382C9.73721 4.382 9.93687 4.46471 10.0841 4.61192C10.2313 4.75914 10.314 4.9588 10.314 5.167C10.314 5.37519 10.2313 5.57486 10.0841 5.72208C9.93687 5.86929 9.73721 5.952 9.52901 5.952Z" fill="white"/>
<path d="M18.452 7.532H16.928V9.673C16.928 9.673 17.011 12.227 14.415 12.227H10.087C10.087 12.227 7.65501 12.187 7.65501 14.577V18.528C7.65501 18.528 7.28601 20.919 12.064 20.919C16.637 20.919 16.352 18.936 16.352 18.936L16.346 16.882H11.983V16.265H18.08C18.08 16.265 21.007 16.597 21.007 11.983C21.007 7.369 18.452 7.532 18.452 7.532ZM14.471 17.968C14.6792 17.968 14.8789 18.0507 15.0261 18.1979C15.1733 18.3451 15.256 18.5448 15.256 18.753C15.256 18.9612 15.1733 19.1609 15.0261 19.3081C14.8789 19.4553 14.6792 19.538 14.471 19.538C14.2628 19.538 14.0631 19.4553 13.9159 19.3081C13.7687 19.1609 13.686 18.9612 13.686 18.753C13.686 18.5448 13.7687 18.3451 13.9159 18.1979C14.0631 18.0507 14.2628 17.968 14.471 17.968Z" fill="white"/>
</svg>
