<svg width="16" height="11" viewBox="0 0 16 11" fill="none" xmlns="http://www.w3.org/2000/svg">
<path d="M8 1C6.133 1 4.967 2 4.5 4C5.2 3 6.017 2.625 6.95 2.875C7.483 3.018 7.863 3.432 8.284 3.89C8.971 4.636 9.765 5.5 11.5 5.5C13.367 5.5 14.533 4.5 15 2.5C14.3 3.5 13.483 3.875 12.55 3.625C12.017 3.482 11.637 3.068 11.216 2.61C10.529 1.864 9.735 1 8 1ZM4.5 5.5C2.633 5.5 1.467 6.5 1 8.5C1.7 7.5 2.517 7.125 3.45 7.375C3.983 7.518 4.363 7.932 4.784 8.39C5.471 9.136 6.265 10 8 10C9.867 10 11.033 9 11.5 7C10.8 8 9.983 8.375 9.05 8.125C8.517 7.982 8.137 7.568 7.716 7.11C7.029 6.364 6.235 5.5 4.5 5.5Z" stroke="white" stroke-linejoin="round"/>
</svg>
